<?xml version="1.0" encoding="utf-8"?>
<!-- Generator: Adobe Illustrator 26.5.3, SVG Export Plug-In . SVG Version: 6.00 Build 0)  -->
<svg version="1.1" id="Layer_1" xmlns="http://www.w3.org/2000/svg" xmlns:xlink="http://www.w3.org/1999/xlink" x="0px" y="0px"
	 width="288px" height="288px" viewBox="0 0 288 288" style="enable-background:new 0 0 288 288;" xml:space="preserve">
<g>
	<rect style="fill:none;" width="288" height="288"/>
	<g id="WX-Icons_x2F_Brand_x2F_Color_x2F_01--Sunny-_x40_DefaultSymbols.ICONS_x5F_Forecast_x5F_Color">
		<g id="Sunny">
			<polygon id="Path" style="fill:#FF8700;" points="139.2,0 139.2,48 148.8,48 148.8,0 			"/>
			<polygon id="Path_00000057121616974342326150000016863537239567982217_" style="fill:#FF8700;" points="139.2,240 139.2,288 
				148.8,288 148.8,240 			"/>
			<polygon id="Path_00000086656503857883959810000008998350101775658160_" style="fill:#FF8700;" points="0,148.8 48,148.8 
				48,139.2 0,139.2 			"/>
			<polygon id="Path_00000072254608477443696790000003390943293065400715_" style="fill:#FF8700;" points="215.3,79.5 249.2,45.6 
				242.4,38.8 208.5,72.7 			"/>
			<polygon id="Path_00000018231065076732880540000018372361336007351990_" style="fill:#FF8700;" points="249.2,242.4 215.3,208.5 
				208.5,215.3 242.4,249.2 			"/>
			<polygon id="Path_00000034086195218866011530000006937869128424671114_" style="fill:#FF8700;" points="79.5,72.7 45.6,38.8 
				38.8,45.6 72.7,79.5 			"/>
			<path id="Oval" style="fill:#FF8700;" d="M144,225.6c45.1,0,81.6-36.5,81.6-81.6S189.1,62.4,144,62.4S62.4,98.9,62.4,144
				S98.9,225.6,144,225.6z M144,216c-39.8,0-72-32.2-72-72s32.2-72,72-72s72,32.2,72,72S183.8,216,144,216z"/>
			<polygon id="Path_00000148646274251094816310000004658356820535566255_" style="fill:#FF8700;" points="72.7,208.5 38.8,242.4 
				45.6,249.2 79.5,215.3 			"/>
			<polygon id="Path_00000057834704606996834100000005656484428154705820_" style="fill:#FF8700;" points="240,148.8 288,148.8 
				288,139.2 240,139.2 			"/>
		</g>
	</g>
</g>
</svg>
