<?xml version="1.0" encoding="utf-8"?>
<!-- Generator: Adobe Illustrator 26.5.3, SVG Export Plug-In . SVG Version: 6.00 Build 0)  -->
<svg version="1.1" id="Layer_1" xmlns="http://www.w3.org/2000/svg" xmlns:xlink="http://www.w3.org/1999/xlink" x="0px" y="0px"
	 width="288px" height="288px" viewBox="0 0 288 288" style="enable-background:new 0 0 288 288;" xml:space="preserve">
<g>
	<rect style="fill:none;" width="288" height="288"/>
	<g id="WX-Icons_x2F_Brand_x2F_Color_x2F_07--Cloudy-_x40_DefaultSymbols.ICONS_x5F_Forecast_x5F_Color">
		<g id="Cloudy" transform="translate(24.000000, 74.000000)">
			<path id="Path" style="fill:#BABABA;" d="M183.4,12.2C160.6-13,125-22.6,92.6-12C61-1.7,38.2,25.7,33.7,58.3H25
				c-27,0-49,21.9-49,49s21.9,49,49,49H192c39.8,0,72-32.3,72-72c0-19.1-7.6-37.4-21.1-50.9c-13.5-13.5-31.8-21.1-50.9-21.1H183.4z
				 M252.5,84.2c0,33.4-27.1,60.5-60.4,60.5H25c-20.7,0-37.4-16.8-37.4-37.4S4.3,69.8,25,69.8h19.2l0.4-5.3
				C46.9,34.2,67.3,8.3,96.1-1s60.6-0.4,80.2,22.7l1.7,2H192c16,0,31.4,6.4,42.8,17.7C246.1,52.8,252.5,68.2,252.5,84.2z"/>
		</g>
	</g>
</g>
</svg>
