<?xml version="1.0" encoding="utf-8"?>
<!-- Generator: Adobe Illustrator 26.5.3, SVG Export Plug-In . SVG Version: 6.00 Build 0)  -->
<svg version="1.1" id="Layer_1" xmlns="http://www.w3.org/2000/svg" xmlns:xlink="http://www.w3.org/1999/xlink" x="0px" y="0px"
	 width="288px" height="288px" viewBox="0 0 288 288" style="enable-background:new 0 0 288 288;" xml:space="preserve">
<g>
	<rect style="fill:none;" width="288" height="288"/>
	<g id="WX-Icons_x2F_Brand_x2F_Color_x2F_08--Dreary-_x40_DefaultSymbols.ICONS_x5F_Forecast_x5F_Color">
		<g id="Dreary-_x28_Overcast_x29_" transform="translate(12.000000, 59.000000)">
			<path id="Path" style="fill:#BABABA;" d="M163.6,134.9l0.3-4.9c1-14.6,10.8-27.1,24.8-31.7s29.2-0.1,38.6,11.1l1.6,1.9h8.1h5.8
				l1.4-3.2c8.7-20.2,6.8-43.5-5.3-61.9s-32.6-29.5-54.6-29.6l-7.7,0c-20.7-22.9-53-31.6-82.5-22C65.2,4,44.5,28.9,40.4,58.6h-7.9
				C7.9,58.6-12,78.5-12,103.1s19.9,44.5,44.5,44.5h102.4l1.4-3c2.8-5.9,8.7-9.7,15.3-9.8H163.6z M32.5,137.2c-18.8,0-34-15.2-34-34
				s15.2-34,34-34H50l0.4-4.8C52.5,36.7,71,13.2,97.2,4.6s55.1-0.4,72.9,20.7l1.6,1.8h12.5c18.5,0.1,35.7,9.4,45.8,24.9
				c9.5,14.5,11.6,32.6,5.7,48.8l-2.1,0c-12.2-13.1-31-18.1-48.2-12.5c-16.4,5.3-28.4,19.3-31.4,36h-2.5l0,0
				c-9.5,0-18.1,4.9-23.1,12.8H32.5z M235.1,102.6l0.2,0.1c-0.1-0.1-0.1-0.1-0.2-0.2C235.1,102.6,235.1,102.6,235.1,102.6z"/>
			<path id="Path_00000070079958893448531160000001372867658679544448_" style="fill:#BABABA;" d="M185.4,88.4
				c-16.4,5.3-28.4,19.3-31.4,36.1h-2.6l-0.1,0c-14.6,0.7-26.1,12.7-26.1,27.4c0,14.6,11.5,26.6,26.1,27.4l0.1,0h85.7
				c21.6-0.2,38.9-17.7,38.9-39.2v0c0-21.5-17.5-39-39-39.1l-3.3,0C221.4,87.7,202.6,82.8,185.4,88.4z M135.7,151.8
				c0-9,7-16.4,16-16.9h11.9l0.3-4.9c1-14.6,10.8-27.2,24.8-31.7c13.9-4.5,29.2-0.1,38.6,11.1l1.6,1.9h8.1
				c15.8,0,28.5,12.8,28.5,28.6v0c0,15.8-12.7,28.6-28.4,28.8h-85.4C142.7,168.2,135.7,160.8,135.7,151.8z"/>
		</g>
	</g>
</g>
</svg>
