<?xml version="1.0" encoding="utf-8"?>
<!-- Generator: Adobe Illustrator 26.5.3, SVG Export Plug-In . SVG Version: 6.00 Build 0)  -->
<svg version="1.1" id="Layer_1" xmlns="http://www.w3.org/2000/svg" xmlns:xlink="http://www.w3.org/1999/xlink" x="0px" y="0px"
	 width="288px" height="288px" viewBox="0 0 288 288" style="enable-background:new 0 0 288 288;" xml:space="preserve">
<g>
	<rect style="fill:none;" width="288" height="288"/>
	<g id="WX-Icons_x2F_Brand_x2F_Color_x2F_11--Fog-_x40_DefaultSymbols.ICONS_x5F_Forecast_x5F_Color">
		<g id="Fog" transform="translate(1.000000, 53.000000)">
			<path id="Path" style="fill:#BABABA;" d="M199.6,21.4c-20.3-22.5-52.1-31-81.1-21.6C90.3,8.9,70,33.4,66,62.5h-7.8
				c-11.6,0-22.7,4.6-30.9,12.8c-8.2,8.2-12.8,19.3-12.8,30.9v7.7H265l1.3-3.1c8.5-19.9,6.4-42.6-5.5-60.7
				c-11.9-18-32.1-28.8-53.7-28.8L199.6,21.4z M24.8,103.7c0.6-7.9,4-15.4,9.7-21.1c6.3-6.3,14.8-9.8,23.7-9.8h12.4h4.8l0.4-4.8
				c2.1-27,20.2-50.1,46-58.5s54.1-0.4,71.6,20.3l1.5,1.8h12.3c18.1,0,35.1,9.1,45.1,24.2c9.4,14.2,11.5,31.9,5.8,47.8H24.8z"/>
			<polygon id="Path_00000181085035757448854500000009434052385509825445_" style="fill:#BABABA;" points="-1,150 287,150 
				287,139.7 -1,139.7 			"/>
			<polygon id="Path_00000038410693373425888710000000529770062572469153_" style="fill:#BABABA;" points="-1,114 287,114 
				287,103.7 -1,103.7 			"/>
			<polygon id="Path_00000068666717226244462140000003204992346705162629_" style="fill:#BABABA;" points="-1,186 287,186 
				287,175.7 -1,175.7 			"/>
		</g>
	</g>
</g>
</svg>
