<?xml version="1.0" encoding="utf-8"?>
<!-- Generator: Adobe Illustrator 26.5.3, SVG Export Plug-In . SVG Version: 6.00 Build 0)  -->
<svg version="1.1" id="Layer_1" xmlns="http://www.w3.org/2000/svg" xmlns:xlink="http://www.w3.org/1999/xlink" x="0px" y="0px"
	 width="288px" height="288px" viewBox="0 0 288 288" style="enable-background:new 0 0 288 288;" xml:space="preserve">
<g>
	<rect style="fill:none;" width="288" height="288"/>
	<g id="WX-Icons_x2F_Brand_x2F_Color_x2F_22--Snow-_x40_DefaultSymbols.ICONS_x5F_Forecast_x5F_Color">
		<g id="Snow" transform="translate(26.000000, 26.000000)">
			<polygon id="Path" style="fill:#288ADB;" points="215.9,178.6 215.9,247.6 227.4,247.6 227.4,178.6 			"/>
			<polygon id="Path_00000064344892139615711160000006929639242409755554_" style="fill:#288ADB;" points="188.9,200.9 248.6,235.3 
				254.4,225.3 194.7,190.9 			"/>
			<polygon id="Path_00000110452733332065885750000000767110456271909552_" style="fill:#288ADB;" points="194.7,235.3 254.4,200.9 
				248.6,190.9 188.9,225.3 			"/>
			<polygon id="Path_00000165193640337161343200000006312563858214499202_" style="fill:#288ADB;" points="14.2,178.6 14.2,247.6 
				25.7,247.6 25.7,178.6 			"/>
			<polygon id="Path_00000034795530859891373380000010690043559889170331_" style="fill:#288ADB;" points="-12.8,200.9 47,235.3 
				52.7,225.3 -7,190.9 			"/>
			<polygon id="Path_00000152266422075923496430000013557066130067916990_" style="fill:#288ADB;" points="-7,235.3 52.7,200.9 
				47,190.9 -12.8,225.3 			"/>
			<path id="Path_00000180345775462308042750000011267156949878084791_" style="fill:#BABABA;" d="M181.3,5.3
				C158.5-19.9,123-29.4,90.5-18.9C58.9-8.6,36.2,18.8,31.7,51.4H23c-27,0-49,21.9-49,49s21.9,49,49,49h167c39.8,0,72-32.2,72-72
				s-32.2-72-72-72L181.3,5.3L181.3,5.3z M190,137.8H23c-20.7,0-37.4-16.8-37.4-37.4S2.3,62.9,23,62.9h19.2l0.4-5.3
				C44.9,27.3,65.2,1.4,94.1-7.9s60.5-0.4,80.2,22.7l1.7,2h14c33.4,0,60.5,27.1,60.5,60.5S223.4,137.8,190,137.8z"/>
			<polygon id="Path_00000110443040122227766430000014360241433061731476_" style="fill:#288ADB;" points="115.1,167 115.1,259.1 
				126.6,259.1 126.6,167 			"/>
			<polygon id="Path_00000096762765109846243970000010398244610530387122_" style="fill:#288ADB;" points="78.1,195 157.8,241.1 
				163.6,231.1 83.8,185 			"/>
			<polygon id="Path_00000155120628135891078450000006703983423615008953_" style="fill:#288ADB;" points="83.8,241.1 163.6,195 
				157.8,185 78.1,231.1 			"/>
		</g>
	</g>
</g>
</svg>
