<?xml version="1.0" encoding="utf-8"?>
<!-- Generator: Adobe Illustrator 26.5.3, SVG Export Plug-In . SVG Version: 6.00 Build 0)  -->
<svg version="1.1" id="Layer_1" xmlns="http://www.w3.org/2000/svg" xmlns:xlink="http://www.w3.org/1999/xlink" x="0px" y="0px"
	 width="288px" height="288px" viewBox="0 0 288 288" style="enable-background:new 0 0 288 288;" xml:space="preserve">
<g>
	<rect style="fill:none;" width="288" height="288"/>
	<g id="WX-Icons_x2F_Brand_x2F_Color_x2F_18--Rain-_x40_DefaultSymbols.ICONS_x5F_Forecast_x5F_Color">
		<g id="Rain" transform="translate(26.000000, 31.000000)">
			<path id="Path" style="fill:#BABABA;" d="M181.3,4.4C158.5-20.8,123-30.4,90.5-19.8C58.9-9.6,36.2,17.8,31.7,50.4H23
				c-27,0-49,21.9-49,49s21.9,49,49,49H190c39.8,0,72-32.2,72-72s-32.2-72-72-72H181.3z M190,136.8H23c-20.7,0-37.4-16.8-37.4-37.4
				S2.3,62,23,62h19.2l0.4-5.3C44.9,26.4,65.2,0.5,94.1-8.9s60.5-0.4,80.2,22.7l1.7,2h14c33.4,0,60.5,27.1,60.5,60.5
				S223.4,136.8,190,136.8z"/>
			<polygon id="Path_00000116952262839987948690000015639420606710836917_" style="fill:#288ADB;" points="13.4,222.8 45,168.7 
				35,162.9 3.5,217 			"/>
			<polygon id="Path_00000170247343564131075510000005699012851323377078_" style="fill:#288ADB;" points="97.1,222.8 128.7,168.7 
				118.8,162.9 87.2,217 			"/>
			<polygon id="Path_00000116922436927661775290000018266713076085492111_" style="fill:#288ADB;" points="39.4,250.1 86.8,168.7 
				76.9,162.9 29.4,244.3 			"/>
			<polygon id="Path_00000171704397938840778110000017837471309659588029_" style="fill:#288ADB;" points="182.5,222.8 214.1,168.7 
				204.2,162.9 172.6,217 			"/>
			<polygon id="Path_00000011748669611117404750000016437176614885853882_" style="fill:#288ADB;" points="124.7,250.1 172.2,168.7 
				162.3,162.9 114.8,244.3 			"/>
		</g>
	</g>
</g>
</svg>
