<?xml version="1.0" encoding="utf-8"?>
<!-- Generator: Adobe Illustrator 26.5.3, SVG Export Plug-In . SVG Version: 6.00 Build 0)  -->
<svg version="1.1" id="Layer_1" xmlns="http://www.w3.org/2000/svg" xmlns:xlink="http://www.w3.org/1999/xlink" x="0px" y="0px"
	 width="288px" height="288px" viewBox="0 0 288 288" style="enable-background:new 0 0 288 288;" xml:space="preserve">
<g>
	<rect style="fill:none;" width="288" height="288"/>
	<g id="WX-Icons_x2F_Brand_x2F_Color_x2F_29--Rain--Snow-Mix-_x40_DefaultSymbols.ICONS_x5F_Forecast_x5F_Color">
		<g id="Rain-and-Snow-_x28_Wintry-Mix_x29_" transform="translate(26.000000, 30.000000)">
			<path id="Path" style="fill:#BABABA;" d="M90.5-19C58.9-8.8,36.1,18.6,31.6,51.2h-8.7c-27,0-48.9,22-48.9,49s21.9,48.9,48.9,48.9
				H190c39.7,0,72-32.2,72-72s-32.2-72-72-72h-8.7C158.5-20.1,123-29.6,90.5-19z M190,137.6H22.9c-20.7,0-37.4-16.8-37.4-37.4
				S2.3,62.8,22.9,62.8h19.2l0.4-5.3C44.8,27.3,65.1,1.4,94-8s60.6-0.4,80.2,22.7l1.8,2h14c33.4,0,60.4,27,60.4,60.4
				S223.4,137.6,190,137.6z"/>
			<polygon id="Path_00000018227969032524941580000014688857524125012409_" style="fill:#288ADB;" points="68.9,163.7 37.6,217.7 
				47.5,223.4 78.9,169.5 			"/>
			<polygon id="Path_00000153675099659543280760000015332857143801529237_" style="fill:#288ADB;" points="111.4,163.8 63.8,245.5 
				73.8,251.3 121.4,169.6 			"/>
			<polygon id="Path_00000116228025408976001690000013556137932971317167_" style="fill:#288ADB;" points="155.2,166.6 155.2,235.7 
				166.7,235.7 166.7,166.6 			"/>
			<polygon id="Path_00000018196195341687960740000010090421259530385033_" style="fill:#288ADB;" points="128.3,188.9 188,223.3 
				193.8,213.3 134.1,178.9 			"/>
			<polygon id="Path_00000001622109157902909930000009531217833856238740_" style="fill:#288ADB;" points="134.1,223.3 193.8,188.9 
				188,178.9 128.3,213.3 			"/>
		</g>
	</g>
</g>
</svg>
