<?xml version="1.0" encoding="utf-8"?>
<!-- Generator: Adobe Illustrator 26.5.3, SVG Export Plug-In . SVG Version: 6.00 Build 0)  -->
<svg version="1.1" id="Layer_1" xmlns="http://www.w3.org/2000/svg" xmlns:xlink="http://www.w3.org/1999/xlink" x="0px" y="0px"
	 width="288px" height="288px" viewBox="0 0 288 288" style="enable-background:new 0 0 288 288;" xml:space="preserve">
<g>
	<rect style="fill:none;" width="288" height="288"/>
	<g id="WX-Icons_x2F_Brand_x2F_Color_x2F_12--Showers-_x40_DefaultSymbols.ICONS_x5F_Forecast_x5F_Color">
		<g id="Showers" transform="translate(24.000000, 28.000000)">
			<path id="Path" style="fill:#BABABA;" d="M183.4,7.3C160.6-17.9,125-27.4,92.6-16.9C61-6.6,38.2,20.8,33.7,53.4H25
				c-27,0-49,21.9-49,49s21.9,49,49,49H192c39.8,0,72-32.3,72-72c0-19.1-7.6-37.4-21.1-50.9C229.4,14.9,211.1,7.3,192,7.3H183.4z
				 M252.5,79.3c0,33.4-27.1,60.5-60.4,60.5H25c-20.7,0-37.4-16.8-37.4-37.4S4.3,64.9,25,64.9h19.2l0.4-5.3
				C46.9,29.3,67.3,3.5,96.1-5.9s60.6-0.4,80.2,22.7l1.7,2H192c16,0,31.4,6.4,42.8,17.7C246.1,47.9,252.5,63.3,252.5,79.3z"/>
			<polygon id="Path_00000121997692283800682810000007443153125077798835_" style="fill:#288ADB;" points="55.1,225.8 86.7,171.7 
				76.7,165.9 45.2,220 			"/>
			<polygon id="Path_00000099644433825987379790000000124516904184831663_" style="fill:#288ADB;" points="138.9,225.8 170.5,171.7 
				160.5,165.9 128.9,220 			"/>
			<polygon id="Path_00000166659570996060441890000008487549189977195181_" style="fill:#288ADB;" points="81.1,253.1 128.6,171.7 
				118.6,165.9 71.2,247.3 			"/>
		</g>
	</g>
</g>
</svg>
