<?xml version="1.0" encoding="utf-8"?>
<!-- Generator: Adobe Illustrator 26.5.3, SVG Export Plug-In . SVG Version: 6.00 Build 0)  -->
<svg version="1.1" id="Layer_1" xmlns="http://www.w3.org/2000/svg" xmlns:xlink="http://www.w3.org/1999/xlink" x="0px" y="0px"
	 width="288px" height="288px" viewBox="0 0 288 288" style="enable-background:new 0 0 288 288;" xml:space="preserve">
<g>
	<rect style="fill:none;" width="288" height="288"/>
	<g id="WX-Icons_x2F_Brand_x2F_Color_x2F_19--Flurries-_x40_DefaultSymbols.ICONS_x5F_Forecast_x5F_Color">
		<g id="Flurries" transform="translate(26.000000, 26.000000)">
			<path id="Path" style="fill:#BABABA;" d="M181.3,5.3C158.5-19.9,123-29.4,90.5-18.9C58.9-8.6,36.2,18.8,31.7,51.4H23
				c-27,0-49,21.9-49,49s21.9,49,49,49H190c39.8,0,72-32.2,72-72s-32.2-72-72-72H181.3z M190,137.8H23c-20.7,0-37.4-16.8-37.4-37.4
				S2.3,62.9,23,62.9h19.2l0.4-5.3C44.9,27.3,65.2,1.4,94.1-7.9s60.5-0.4,80.2,22.7l1.7,2h14c33.4,0,60.5,27.1,60.5,60.5
				S223.4,137.8,190,137.8z"/>
			<polygon id="Path_00000172440174272444125660000008778002535524679864_" style="fill:#288ADB;" points="115.1,167 115.1,259.1 
				126.6,259.1 126.6,167 			"/>
			<polygon id="Path_00000131354141259230786570000012285712073160052131_" style="fill:#288ADB;" points="78.1,195 157.8,241.1 
				163.6,231.1 83.8,185 			"/>
			<polygon id="Path_00000177456241358792360660000013798893812243751831_" style="fill:#288ADB;" points="83.8,241.1 163.6,195 
				157.8,185 78.1,231.1 			"/>
		</g>
	</g>
</g>
</svg>
