<?xml version="1.0" encoding="utf-8"?>
<!-- Generator: Adobe Illustrator 26.5.3, SVG Export Plug-In . SVG Version: 6.00 Build 0)  -->
<svg version="1.1" id="Layer_1" xmlns="http://www.w3.org/2000/svg" xmlns:xlink="http://www.w3.org/1999/xlink" x="0px" y="0px"
	 width="288px" height="288px" viewBox="0 0 288 288" style="enable-background:new 0 0 288 288;" xml:space="preserve">
<g>
	<rect style="fill:none;" width="288" height="288"/>
	<g id="WX-Icons_x2F_Brand_x2F_Color_x2F_13--Mostly-Cloudy-with-Showers-_x40_DefaultSymbols.ICONS_x5F_Forecast_x5F_Color">
		<g id="Mostly-Cloudy-w-Showers" transform="translate(12.000000, 4.000000)">
			<polygon id="Path" style="fill:#288ADB;" points="88.2,260.3 115.6,213.3 107,208.3 79.6,255.3 			"/>
			<polygon id="Path_00000090279625497387711390000000837647521169365135_" style="fill:#288ADB;" points="160.9,260.3 188.3,213.3 
				179.7,208.3 152.3,255.3 			"/>
			<polygon id="Path_00000098916134765774412930000006071814728584459417_" style="fill:#288ADB;" points="110.8,284 152,213.3 
				143.3,208.3 102.1,279 			"/>
			<polygon id="Path_00000159454006493703696720000016616301866236755337_" style="fill:#FF8700;" points="79.5,-4 79.5,31 89.5,31 
				89.5,-4 			"/>
			<polygon id="Path_00000078038894346678871710000010330080376814809216_" style="fill:#FF8700;" points="29.5,80.7 -5.5,80.7 
				-5.5,90.7 29.5,90.7 			"/>
			<polygon id="Path_00000065064077634245496260000017063388230130296990_" style="fill:#FF8700;" points="49.1,43.2 24.3,18.4 
				17.3,25.5 42,50.2 			"/>
			<path id="Path_00000124147239117163969160000018008755472497547176_" style="fill:#FF8700;" d="M116.9,54.3
				c-11.5-11.9-28.6-16.5-44.5-12S44.4,59.7,40.7,75.8c-3.6,16.1,1.9,32.9,14.3,43.8l6.6-7.5c-9.7-8.4-14-21.5-11.1-34.1
				c2.8-12.5,12.3-22.5,24.7-26s25.7,0.1,34.6,9.3L116.9,54.3z"/>
			<path id="Path_00000183230412434443535010000003844298005675901060_" style="fill:#BABABA;" d="M120.7,49.6
				c-27.4,8.9-47.2,32.7-51.1,61H62c-23.5,0-42.5,19-42.5,42.5s19,42.5,42.5,42.5h145c34.5,0,62.5-28,62.5-62.5
				c0-16.6-6.6-32.5-18.3-44.2c-11.7-11.7-27.6-18.3-44.2-18.3h-7.5C179.7,48.8,148.9,40.5,120.7,49.6z M259.5,133.2
				c0,29-23.5,52.5-52.5,52.5H62c-18,0-32.5-14.6-32.5-32.5s14.6-32.5,32.5-32.5h16.7l0.4-4.6c2-26.3,19.7-48.7,44.7-56.9
				s52.6-0.3,69.6,19.7l1.5,1.8H207c13.9,0,27.3,5.5,37.1,15.4S259.5,119.2,259.5,133.2z"/>
		</g>
	</g>
</g>
</svg>
