<?xml version="1.0" encoding="utf-8"?>
<!-- Generator: Adobe Illustrator 26.5.3, SVG Export Plug-In . SVG Version: 6.00 Build 0)  -->
<svg version="1.1" id="Layer_1" xmlns="http://www.w3.org/2000/svg" xmlns:xlink="http://www.w3.org/1999/xlink" x="0px" y="0px"
	 width="288px" height="288px" viewBox="0 0 288 288" style="enable-background:new 0 0 288 288;" xml:space="preserve">
<g>
	<g id="WX-Icons_x2F_Brand_x2F_Color_x2F_21---Partly-Sunny-w-Flurries-_x40_DefaultSymbols.ICONS_x5F_Forecast_x5F_Color">
		<g id="Partly-sunny-w--Flurries" transform="translate(4.000000, 0.000000)">
			<polygon id="Path" style="fill:#FF8700;" points="128,43.2 128,0 118.4,0 118.4,43.2 			"/>
			<polygon id="Path_00000029045400914558956260000002673260702648636291_" style="fill:#FF8700;" points="68.9,63.7 38.4,33.2 
				31.6,40 62.1,70.5 			"/>
			<polygon id="Path_00000088853245381007016640000006231181816559269777_" style="fill:#FF8700;" points="41.6,120 -1.6,120 
				-1.6,129.6 41.6,129.6 			"/>
			<polygon id="Path_00000065042011246486802260000011271035212903246270_" style="fill:#FF8700;" points="62.2,179 31.6,209.6 
				38.4,216.4 68.9,185.8 			"/>
			<polygon id="Path_00000072271504183526204860000011502102460883128247_" style="fill:#FF8700;" points="184.2,70.5 214.8,39.9 
				208,33.1 177.4,63.7 			"/>
			<path id="Path_00000129923325632061228660000005147433647323598994_" style="fill:#FF8700;" d="M191.1,101.2
				c-10.7-31-40.9-50.8-73.6-48.3s-59.5,26.8-65.3,59s10.9,64.3,40.6,78.1l4-8.7c-25.8-11.9-40.2-39.8-35.2-67.7
				c5-27.9,28.3-49,56.6-51.1c28.3-2.2,54.5,15,63.8,41.9L191.1,101.2z"/>
			<path id="Path_00000049212956016863429460000010925651570775154306_" style="fill:#BABABA;" d="M267.4,131
				c-9.1-9.1-21.4-14.2-34.3-14.2h-5.2c-15.3-16.8-39-23.1-60.7-16.1c-21,6.8-36.2,24.9-39.4,46.5h-4.9c-18.4,0-33.3,14.9-33.3,33.3
				s14.9,33.3,33.3,33.3h110.4c26.7-0.1,48.3-21.8,48.3-48.5C281.6,152.4,276.5,140.1,267.4,131z M272,165.3
				c0,21.4-17.3,38.8-38.7,38.9H122.9c-13.1,0-23.7-10.6-23.7-23.7c0-13.1,10.6-23.7,23.7-23.7h13.6l0.3-4.5
				c1.4-19.6,14.6-36.4,33.3-42.5s39.2-0.2,51.9,14.8l1.4,1.7h9.6c10.3,0,20.2,4.1,27.5,11.4C267.9,145,272,154.9,272,165.3
				L272,165.3z"/>
			<path id="Path_00000142165535448316894220000010637637102781776568_" style="fill:#BABABA;" d="M267.4,131
				c-9.1-9.1-21.4-14.2-34.3-14.2h-5.2c-15.3-16.8-39-23.1-60.7-16.1c-21,6.8-36.2,24.9-39.4,46.5h-4.9c-18.4,0-33.3,14.9-33.3,33.3
				s14.9,33.3,33.3,33.3h110.4c26.7-0.1,48.3-21.8,48.3-48.5C281.6,152.4,276.5,140.1,267.4,131z M272,165.3
				c0,21.4-17.3,38.8-38.7,38.9H122.9c-13.1,0-23.7-10.6-23.7-23.7c0-13.1,10.6-23.7,23.7-23.7h13.6l0.3-4.5
				c1.4-19.6,14.6-36.4,33.3-42.5s39.2-0.2,51.9,14.8l1.4,1.7h9.6c10.3,0,20.2,4.1,27.5,11.4C267.9,145,272,154.9,272,165.3
				L272,165.3z"/>
			<polygon id="Path_00000036948209679408229140000003098148514885949346_" style="fill:#288ADB;" points="180.8,225.6 180.8,288 
				190.4,288 190.4,225.6 			"/>
			<polygon id="Path_00000050645426398003040730000006378249113971495338_" style="fill:#288ADB;" points="156.1,245.4 210.2,276.6 
				215,268.2 160.9,237 			"/>
			<polygon id="Path_00000143612917748130671130000002001531718315172773_" style="fill:#288ADB;" points="160.9,276.6 215,245.4 
				210.2,237 156.1,268.2 			"/>
		</g>
	</g>
	<rect style="fill:none;" width="288" height="288"/>
</g>
</svg>
