<?xml version="1.0" encoding="utf-8"?>
<!-- Generator: Adobe Illustrator 26.5.3, SVG Export Plug-In . SVG Version: 6.00 Build 0)  -->
<svg version="1.1" id="Layer_1" xmlns="http://www.w3.org/2000/svg" xmlns:xlink="http://www.w3.org/1999/xlink" x="0px" y="0px"
	 width="288px" height="288px" viewBox="0 0 288 288" style="enable-background:new 0 0 288 288;" xml:space="preserve">
<g>
	<rect style="fill:none;" width="288" height="288"/>
	<g id="WX-Icons_x2F_Brand_x2F_Color_x2F_06--Mostly-Cloudy-_x40_DefaultSymbols.ICONS_x5F_Forecast_x5F_Color">
		<g id="Mostly-Cloudy" transform="translate(12.000000, 49.000000)">
			<polygon id="Path" style="fill:#FF8700;" points="77,-9.5 77,27.1 87.5,27.1 87.5,-9.5 			"/>
			<polygon id="Path_00000056427789660471047020000008625641822104044696_" style="fill:#FF8700;" points="24.7,79.1 -12,79.1 
				-12,89.6 24.7,89.6 			"/>
			<polygon id="Path_00000140710761019864326540000005423996627132071832_" style="fill:#FF8700;" points="45.2,39.9 19.2,13.9 
				11.8,21.3 37.8,47.3 			"/>
			<path id="Path_00000015339414112555968630000012543288855505426622_" style="fill:#FF8700;" d="M116.2,51.5
				C104.2,39.1,86.3,34.3,69.6,39S40.2,57.1,36.4,74s2,34.5,15,45.9l6.9-7.9c-10.1-8.8-14.6-22.5-11.7-35.7
				c3-13.1,12.9-23.6,25.8-27.2c13-3.6,26.9,0.1,36.2,9.8L116.2,51.5z"/>
			<path id="Path_00000170960683117095635530000012206245836193491335_" style="fill:#BABABA;" d="M120.2,46.6
				C91.5,56,70.8,80.9,66.7,110.5h-7.9c-24.6,0-44.5,19.9-44.5,44.5s19.9,44.5,44.5,44.5h151.9c36.1,0,65.4-29.3,65.4-65.5
				c0-17.4-6.9-34-19.2-46.3c-12.3-12.3-28.9-19.2-46.3-19.2h-7.8C182,45.7,149.7,37,120.2,46.6z M265.5,134.1
				c0,30.3-24.6,55-54.9,55H58.7c-18.8,0-34-15.2-34-34s15.2-34,34-34h17.5l0.4-4.8c2.1-27.5,20.6-51,46.8-59.6s55-0.4,72.9,20.7
				l1.6,1.8h12.6c14.6,0,28.6,5.8,38.9,16.1C259.7,105.5,265.5,119.5,265.5,134.1z"/>
		</g>
	</g>
</g>
</svg>
