<?xml version="1.0" encoding="utf-8"?>
<!-- Generator: Adobe Illustrator 26.5.3, SVG Export Plug-In . SVG Version: 6.00 Build 0)  -->
<svg version="1.1" id="Layer_1" xmlns="http://www.w3.org/2000/svg" xmlns:xlink="http://www.w3.org/1999/xlink" x="0px" y="0px"
	 width="288px" height="288px" viewBox="0 0 288 288" style="enable-background:new 0 0 288 288;" xml:space="preserve">
<g>
	<rect style="fill:none;" width="288" height="288"/>
	<g id="WX-Icons_x2F_Brand_x2F_Color_x2F_03--Partly-Sunny-_x40_DefaultSymbols.ICONS_x5F_Forecast_x5F_Color">
		<g id="Partly-Sunny" transform="translate(0.000000, 21.000000)">
			<polygon id="Path" style="fill:#FF8700;" points="139.1,0 139.1,48 148.7,48 148.7,0 			"/>
			<polygon id="Path_00000103946531972573652210000009981887573728644770_" style="fill:#FF8700;" points="0,148.7 48,148.7 
				48,139.1 0,139.1 			"/>
			<polygon id="Path_00000068660762661058095730000015555390760563572105_" style="fill:#FF8700;" points="215.1,79.5 249,45.6 
				242.2,38.8 208.3,72.7 			"/>
			<polygon id="Path_00000074441914360836478750000015654484836142449297_" style="fill:#FF8700;" points="79.5,72.7 45.6,38.8 
				38.8,45.6 72.7,79.5 			"/>
			<polygon id="Path_00000088836031421097683350000002036012634151238788_" style="fill:#FF8700;" points="45.6,249 79.5,215.1 
				72.7,208.3 38.8,242.2 			"/>
			<path id="Path_00000100382843345430095540000009948842466696830371_" style="fill:#FF8700;" d="M225.1,137.8
				c-2.8-38-31.6-68.9-69.2-74.6s-74.2,15.5-88.1,50.9s-1.3,75.8,30.2,97.2l5.4-7.9c-27.8-18.9-38.8-54.4-26.6-85.7
				s44.5-49.9,77.7-45c33.2,5,58.6,32.3,61.1,65.8L225.1,137.8z"/>
			<path id="Path_00000092434462886871332160000010477109152728788355_" style="fill:#BABABA;" d="M174.8,127.6
				c-20.7,6.4-36,23.9-39.7,45.1h-5.6c-18.5,0-33.6,15-33.6,33.6s15,33.6,33.6,33.6h110.3c26.5,0,48-21.5,48-48s-21.5-48-48-48h-5.4
				C219.5,127.4,196.3,121,174.8,127.6z M239.8,153.5c21.2,0,38.4,17.2,38.4,38.4s-17.2,38.4-38.4,38.4H129.5c-13.2,0-24-10.7-24-24
				c0-13.2,10.7-24,24-24h14.2l0.4-4.3c1.9-19.2,15.1-35.5,33.6-41.2s38.5,0.2,51,15l1.4,1.7H239.8z"/>
		</g>
	</g>
</g>
</svg>
