<?xml version="1.0" encoding="utf-8"?>
<!-- Generator: Adobe Illustrator 26.5.3, SVG Export Plug-In . SVG Version: 6.00 Build 0)  -->
<svg version="1.1" id="Layer_1" xmlns="http://www.w3.org/2000/svg" xmlns:xlink="http://www.w3.org/1999/xlink" x="0px" y="0px"
	 width="288px" height="288px" viewBox="0 0 288 288" style="enable-background:new 0 0 288 288;" xml:space="preserve">
<g>
	<rect style="fill:none;" width="288" height="288"/>
	<g id="WX-Icons_x2F_Brand_x2F_Color_x2F_14--Partly-Sunny-with-Showers-_x40_DefaultSymbols.ICONS_x5F_Forecast_x5F_Color">
		<g id="Partly-Sunny-w--Showers" transform="translate(2.000000, 2.000000)">
			<polygon id="Path" style="fill:#FF8700;" points="129.8,41.8 129.8,-2 120,-2 120,41.8 			"/>
			<polygon id="Path_00000168830962267620316110000000750005752009874575_" style="fill:#FF8700;" points="69.8,62.7 38.8,31.7 
				32,38.6 62.9,69.6 			"/>
			<polygon id="Path_00000006706586638301071260000012372472850747890361_" style="fill:#FF8700;" points="42.2,119.8 -1.7,119.8 
				-1.7,129.5 42.2,129.5 			"/>
			<polygon id="Path_00000067934487102887232420000010185944510516560039_" style="fill:#FF8700;" points="63,179.7 32,210.7 
				38.8,217.6 69.9,186.6 			"/>
			<polygon id="Path_00000112609324581788251290000002179302880724658830_" style="fill:#FF8700;" points="186.9,69.5 217.9,38.5 
				211,31.6 180,62.6 			"/>
			<path id="Path_00000010994749086651126490000015571670163952427674_" style="fill:#FF8700;" d="M193.9,100.7
				c-10.8-31.4-41.5-51.6-74.7-49s-60.4,27.2-66.3,59.9s11,65.3,41.2,79.3l4.1-8.8c-26.1-12.1-40.8-40.4-35.7-68.7
				S91.2,63.6,120,61.4s55.3,15.2,64.7,42.5L193.9,100.7z"/>
			<polygon id="Path_00000021113699356850371440000005056862536848057511_" style="fill:#288ADB;" points="139.3,267.4 160.8,230.5 
				152.4,225.6 130.9,262.5 			"/>
			<polygon id="Path_00000136393325912441919610000011970556751147468731_" style="fill:#288ADB;" points="210.7,267.4 232.2,230.5 
				223.8,225.5 202.2,262.5 			"/>
			<polygon id="Path_00000116197796679702893630000000062994299526364550_" style="fill:#288ADB;" points="164.6,286 197,230.5 
				188.6,225.6 156.2,281.1 			"/>
			<path id="Path_00000173840925028534138500000013922809594660730259_" style="fill:#BABABA;" d="M271.3,130.9
				c-9.2-9.2-21.8-14.4-34.8-14.4h-5.3c-15.5-17-39.6-23.5-61.6-16.3c-21.3,6.9-36.7,25.3-40,47.2h-4.9c-18.7,0-33.8,15.1-33.8,33.8
				s15.1,33.8,33.8,33.8h112.1c27.1-0.1,49-22.1,49-49.3C285.7,152.7,280.5,140.2,271.3,130.9z M275.9,165.7
				c0,21.7-17.5,39.4-39.3,39.5h-112c-13.3,0-24.1-10.8-24.1-24.1s10.8-24.1,24.1-24.1h13.8l0.3-4.5c1.4-19.9,14.8-37,33.8-43.2
				c19-6.2,39.8-0.2,52.7,15.1l1.5,1.7h9.8c10.5,0,20.5,4.2,27.9,11.6C271.8,145.2,275.9,155.3,275.9,165.7L275.9,165.7z"/>
		</g>
	</g>
</g>
</svg>
