<?xml version="1.0" encoding="utf-8"?>
<!-- Generator: Adobe Illustrator 26.5.3, SVG Export Plug-In . SVG Version: 6.00 Build 0)  -->
<svg version="1.1" id="Layer_1" xmlns="http://www.w3.org/2000/svg" xmlns:xlink="http://www.w3.org/1999/xlink" x="0px" y="0px"
	 width="288px" height="288px" viewBox="0 0 288 288" style="enable-background:new 0 0 288 288;" xml:space="preserve">
<g>
	<rect style="fill:none;" width="288" height="288"/>
	<g id="WX-Icons_x2F_Brand_x2F_Color_x2F_02--Mostly-Sunny-_x40_DefaultSymbols.ICONS_x5F_Forecast_x5F_Color">
		<g id="Mostly-Sunny" transform="translate(1.000000, 2.000000)">
			<polygon id="Path" style="fill:#FF8700;" points="137.7,0 137.7,47.5 147.2,47.5 147.2,0 			"/>
			<polygon id="Path_00000093885601627824186290000005307471882343174826_" style="fill:#FF8700;" points="137.7,237.5 137.7,285 
				147.2,285 147.2,237.5 			"/>
			<polygon id="Path_00000042012243328839550190000002656308426135590318_" style="fill:#FF8700;" points="0,147.2 47.5,147.2 
				47.5,137.7 0,137.7 			"/>
			<polygon id="Path_00000039124152512535164710000012982269844374321330_" style="fill:#FF8700;" points="213,78.7 246.6,45.1 
				239.9,38.4 206.3,72 			"/>
			<polygon id="Path_00000001652343973857788370000012576886461038744711_" style="fill:#FF8700;" points="246.6,239.9 213,206.3 
				206.3,213 239.9,246.6 			"/>
			<polygon id="Path_00000162333489623972465230000012320222428623588785_" style="fill:#FF8700;" points="78.7,72 45.1,38.4 
				38.4,45.1 72,78.7 			"/>
			<polygon id="Path_00000057847614828207335000000017363184358574126223_" style="fill:#FF8700;" points="72,206.3 38.4,239.9 
				45.1,246.6 78.7,213 			"/>
			<path id="Path_00000051365680071368096460000012812606174982519967_" style="fill:#FF8700;" d="M215.2,107.5
				c-15.9-32.9-51.9-51.1-87.8-44.2s-62.8,36.9-65.4,73.4s19.5,70.2,54,82.2c34.5,12,72.8-0.7,93.3-30.9l-7.9-5.3
				c-18.1,26.7-51.9,37.9-82.4,27.3c-30.5-10.6-50-40.3-47.7-72.5s26-58.7,57.7-64.8c31.7-6,63.5,10,77.5,39L215.2,107.5z"/>
			<path id="Path_00000152233117153460601180000011403326615319738553_" style="fill:#BABABA;" d="M201.9,106.9
				c-15.5,5.2-26.5,18.7-28.7,34.7h-1.8l-0.1,0c-12.9,0.6-23.1,11.3-23.1,24.2s10.2,23.6,23.1,24.2l0.1,0h77.7
				c13.1,0.7,25.6-5.9,32.4-17.2c6.8-11.3,6.8-25.5,0-36.8c-5.9-9.9-16.2-16.2-27.5-17.1v-0.1h-2.9c-0.1,0-0.2,0-0.2,0h-3.5
				C236,106.1,218.2,101.4,201.9,106.9z M244.6,128.6l5-0.3c9.7-0.5,18.9,4.3,23.9,12.6s5,18.7,0,27s-14.2,13.2-23.9,12.6l-0.1,0
				h-77.8c-7.8-0.4-13.9-6.9-13.9-14.7s6.1-14.3,13.9-14.7h10.6l0.1-4.6c0.4-13.9,9.4-26.1,22.6-30.6c13.2-4.5,27.7-0.2,36.5,10.6
				l1.4,1.8h1.7V128.6z"/>
		</g>
	</g>
</g>
</svg>
