<?xml version="1.0" encoding="utf-8"?>
<!-- Generator: Adobe Illustrator 26.5.3, SVG Export Plug-In . SVG Version: 6.00 Build 0)  -->
<svg version="1.1" id="Layer_1" xmlns="http://www.w3.org/2000/svg" xmlns:xlink="http://www.w3.org/1999/xlink" x="0px" y="0px"
	 width="288px" height="288px" viewBox="0 0 288 288" style="enable-background:new 0 0 288 288;" xml:space="preserve">
<g>
	<rect style="fill:none;" width="288" height="288"/>
	<g id="WX-Icons_x2F_Brand_x2F_Color_x2F_04--Intermitent-Clouds-_x40_DefaultSymbols.ICONS_x5F_Forecast_x5F_Color">
		<g id="Intermittent-Clouds" transform="translate(0.000000, 1.000000)">
			<polygon id="Path" style="fill:#FF8700;" points="138.2,0 138.2,47.7 147.8,47.7 147.8,0 			"/>
			<polygon id="Path_00000115475385166900699030000000010304606464261782_" style="fill:#FF8700;" points="138.2,238.3 138.2,286 
				147.8,286 147.8,238.3 			"/>
			<polygon id="Path_00000105395785287439245890000003374244257970743424_" style="fill:#FF8700;" points="0,147.8 47.7,147.8 
				47.7,138.2 0,138.2 			"/>
			<polygon id="Path_00000173841858920814167550000017780500772253279662_" style="fill:#FF8700;" points="213.8,79 247.5,45.3 
				240.7,38.5 207,72.2 			"/>
			<polygon id="Path_00000122722489733564174560000002716941325784229251_" style="fill:#FF8700;" points="247.5,240.7 213.8,207 
				207,213.8 240.7,247.5 			"/>
			<polygon id="Path_00000152958702992489981500000007212072414264205241_" style="fill:#FF8700;" points="79,72.2 45.3,38.5 
				38.5,45.3 72.2,79 			"/>
			<path id="Path_00000029025206797407792730000004937251159331511221_" style="fill:#FF8700;" d="M215.9,107.9
				c-15.9-33-52.1-51.3-88.1-44.4s-63,37.1-65.7,73.7c-2.7,36.6,19.5,70.4,54.2,82.5s73.1-0.7,93.7-31.1l-7.9-5.4
				c-18.2,26.8-52.1,38-82.7,27.4s-50.2-40.5-47.8-72.8c2.4-32.3,26.1-58.9,57.9-65c31.8-6.1,63.7,10,77.8,39.2L215.9,107.9z"/>
			<path id="Path_00000059998400906459069660000013816078337899673223_" style="fill:#BABABA;" d="M202.7,107.2
				c-15.5,5.2-26.6,18.8-28.8,34.8H172l-0.1,0c-13,0.6-23.2,11.3-23.2,24.3c0,13,10.2,23.7,23.2,24.3l0.1,0h78
				c13.2,0.7,25.7-6,32.5-17.3c6.8-11.4,6.8-25.6,0-36.9c-6-9.9-16.3-16.2-27.6-17.2v-0.1H252c-0.1,0-0.2,0-0.2,0h-3.6
				C236.8,106.5,218.9,101.7,202.7,107.2z M245.4,129l5-0.3c9.7-0.5,18.9,4.3,24,12.7c5,8.3,5,18.8,0,27.1c-5,8.3-14.2,13.2-24,12.7
				l-0.1,0h-78c-7.8-0.4-14-6.9-14-14.8c0-7.9,6.1-14.4,14-14.8h10.6l0.1-4.6c0.4-14,9.4-26.2,22.7-30.7
				c13.2-4.5,27.8-0.2,36.6,10.6l1.4,1.8h1.7V129z"/>
			<path id="Path_00000091009072928371840290000002353919593423140020_" style="fill:#BABABA;" d="M50.4,205c-8.1,0-15.7,3.5-21,9.5
				h-5.5C10.7,214.5,0,225.2,0,238.3c0,13.2,10.7,23.8,23.8,23.8h54.8c9.2,0,16.7-7.5,16.7-16.7s-7.5-16.7-16.7-16.7h-0.1
				C76.3,215.3,64.6,205,50.4,205z M85.8,245.5c0,3.9-3.2,7.1-7.1,7.1H23.8c-7.9,0-14.3-6.4-14.3-14.3c0-7.9,6.4-14.3,14.3-14.3
				h10.2l1.4-1.9c3.5-4.7,9-7.6,14.9-7.6c10.5,0,19,8.5,19,19.1v4.8h9.2C82.6,238.3,85.8,241.5,85.8,245.5z"/>
		</g>
	</g>
</g>
</svg>
