<?xml version="1.0" encoding="utf-8"?>
<!-- Generator: Adobe Illustrator 26.5.3, SVG Export Plug-In . SVG Version: 6.00 Build 0)  -->
<svg version="1.1" id="Layer_1" xmlns="http://www.w3.org/2000/svg" xmlns:xlink="http://www.w3.org/1999/xlink" x="0px" y="0px"
	 width="288px" height="288px" viewBox="0 0 288 288" style="enable-background:new 0 0 288 288;" xml:space="preserve">
<g>
	<rect style="fill:none;" width="288" height="288"/>
	<g id="WX-Icons_x2F_Brand_x2F_Color_x2F_20--Mostly-Cloudy-w-Flurries-_x40_DefaultSymbols.ICONS_x5F_Forecast_x5F_Color">
		<g id="Mostly-cloudy-w--Flurries" transform="translate(14.000000, 2.000000)">
			<polygon id="Path" style="fill:#FF8700;" points="78.7,-2 78.7,32.2 88.5,32.2 88.5,-2 			"/>
			<polygon id="Path_00000111904467828445512710000003935377760754437762_" style="fill:#FF8700;" points="29.9,80.6 -4.3,80.6 
				-4.3,90.4 29.9,90.4 			"/>
			<polygon id="Path_00000054255559253907117170000000747383739421821624_" style="fill:#FF8700;" points="49,44 24.8,19.9 
				17.9,26.8 42.1,50.9 			"/>
			<path id="Path_00000101071000596459217320000002862605448944041898_" style="fill:#FF8700;" d="M115.2,54.9
				C104,43.4,87.3,38.9,71.8,43.2c-15.5,4.4-27.4,16.9-31,32.6c-3.5,15.7,1.8,32.1,14,42.8l6.4-7.4c-9.5-8.2-13.6-21-10.9-33.3
				c2.8-12.2,12-22,24.1-25.4c12.1-3.4,25,0.1,33.8,9.1L115.2,54.9z"/>
			<path id="Path_00000111161034323937631820000011497166401954066867_" style="fill:#BABABA;" d="M195.9,70.9
				c-19.3-21.3-49.4-29.5-76.9-20.5C92.2,59.1,72.9,82.3,69,109.9h-7.4c-22.9,0-41.5,18.6-41.5,41.5s18.6,41.5,41.5,41.5h141.6
				c33.7,0,61-27.3,61-61s-27.3-61-61-61H195.9z M203.3,183.1H61.7c-17.5,0-31.7-14.2-31.7-31.7s14.2-31.7,31.7-31.7h16.3l0.3-4.5
				c2-25.7,19.2-47.6,43.7-55.5s51.3-0.3,68,19.3l1.5,1.7h11.9c28.3,0,51.3,22.9,51.3,51.3S231.6,183.1,203.3,183.1z"/>
			<polygon id="Path_00000157303662146286302670000003903324619593616022_" style="fill:#288ADB;" points="139.8,207.9 139.8,286 
				149.5,286 149.5,207.9 			"/>
			<polygon id="Path_00000083054042930545213010000005672536367282817423_" style="fill:#288ADB;" points="108.4,231.7 176,270.7 
				180.9,262.2 113.3,223.2 			"/>
			<polygon id="Path_00000130623464895840713400000016485689368638559623_" style="fill:#288ADB;" points="113.3,270.7 180.9,231.7 
				176,223.2 108.4,262.2 			"/>
		</g>
	</g>
</g>
</svg>
