<?xml version="1.0" encoding="utf-8"?>
<!-- Generator: Adobe Illustrator 26.5.3, SVG Export Plug-In . SVG Version: 6.00 Build 0)  -->
<svg version="1.1" id="Layer_1" xmlns="http://www.w3.org/2000/svg" xmlns:xlink="http://www.w3.org/1999/xlink" x="0px" y="0px"
	 width="288px" height="288px" viewBox="0 0 288 288" style="enable-background:new 0 0 288 288;" xml:space="preserve">
<g>
	<rect style="fill:none;" width="288" height="288"/>
	<g id="WX-Icons_x2F_Brand_x2F_Color_x2F_05--Hazy-Sunshine-_x40_DefaultSymbols.ICONS_x5F_Forecast_x5F_Color">
		<g id="Hazy-Sunshine" transform="translate(12.000000, 36.000000)">
			<polygon id="Path" style="fill:#FF8700;" points="139.9,-10.8 139.9,41.6 150.3,41.6 150.3,-10.8 			"/>
			<polygon id="Path_00000080901064540135022690000007330625294702315932_" style="fill:#FF8700;" points="-12,151.6 40.4,151.6 
				40.4,141.1 -12,141.1 			"/>
			<polygon id="Path_00000003804142236350453150000017891447886117580701_" style="fill:#FF8700;" points="222.8,76 259.9,39 
				252.5,31.6 215.4,68.6 			"/>
			<polygon id="Path_00000070096848676634774390000000183242397980083127_" style="fill:#FF8700;" points="74.8,68.6 37.7,31.6 
				30.3,39 67.3,76 			"/>
			<path id="Path_00000163755072406924791470000000948319932272441487_" style="fill:#FF8700;" d="M107.2,226.8H183l1.1-0.5
				c37.3-18.1,57.1-59.6,47.8-100s-45.3-69-86.7-69s-77.4,28.6-86.7,69c-9.3,40.4,10.5,81.9,47.8,100L107.2,226.8z M68.6,128.6
				c8.2-35.7,40-60.9,76.5-60.9s68.3,25.3,76.5,60.9c8.1,35.3-8.9,71.5-41.1,87.7h-70.9C77.5,200,60.4,163.8,68.6,128.6z"/>
			<polygon id="Path_00000152260215157890752160000005485164679698260666_" style="fill:#BABABA;" points="275.8,216.3 14.2,216.3 
				14.2,226.8 275.8,226.8 			"/>
			<polygon id="Path_00000109741241986571592150000008609333288866855304_" style="fill:#BABABA;" points="118.9,151.6 276,151.6 
				276,141.1 118.9,141.1 			"/>
			<polygon id="Path_00000001663230910193734320000014606001429422913212_" style="fill:#BABABA;" points="14.2,188.2 171.2,188.2 
				171.2,177.7 14.2,177.7 			"/>
		</g>
	</g>
</g>
</svg>
