<?xml version="1.0" encoding="utf-8"?>
<!-- Generator: Adobe Illustrator 26.5.3, SVG Export Plug-In . SVG Version: 6.00 Build 0)  -->
<svg version="1.1" id="Layer_1" xmlns="http://www.w3.org/2000/svg" xmlns:xlink="http://www.w3.org/1999/xlink" x="0px" y="0px"
	 width="288px" height="288px" viewBox="0 0 288 288" style="enable-background:new 0 0 288 288;" xml:space="preserve">
<g>
	<rect style="fill:none;" width="288" height="288"/>
	<g id="WX-Icons_x2F_Brand_x2F_Color_x2F_23--Mostly-Cloudy-with-Snow-_x40_DefaultSymbols.ICONS_x5F_Forecast_x5F_Color">
		<g id="Mostly-cloudy-w--Snow" transform="translate(14.000000, 2.000000)">
			<polygon id="Path" style="fill:#FF8700;" points="78.7,-2 78.7,32.2 88.5,32.2 88.5,-2 			"/>
			<polygon id="Path_00000018922941769003468660000013819366098312980624_" style="fill:#FF8700;" points="29.9,80.7 -4.2,80.7 
				-4.2,90.4 29.9,90.4 			"/>
			<polygon id="Path_00000158707870825525707880000009097696397111598521_" style="fill:#FF8700;" points="49.1,44.1 24.8,19.9 
				18,26.8 42.1,51 			"/>
			<path id="Path_00000089567883721498200100000014848058514093262258_" style="fill:#FF8700;" d="M115.3,54.9
				c-11.2-11.6-27.9-16.1-43.4-11.7S44.4,60.1,40.9,75.9c-3.5,15.8,1.8,32.1,13.9,42.7l6.4-7.3c-9.5-8.2-13.6-21.1-10.9-33.3
				c2.7-12.2,12-22,24.1-25.4c12.1-3.5,25,0.1,33.8,9.1L115.3,54.9z"/>
			<polygon id="Path_00000126301177382347615720000005073948005287195799_" style="fill:#288ADB;" points="225.3,217.8 225.3,276.2 
				235.1,276.2 235.1,217.8 			"/>
			<polygon id="Path_00000147181826894728683670000016415679959380450749_" style="fill:#288ADB;" points="202.4,236.7 253.1,265.9 
				257.9,257.3 207.3,228.1 			"/>
			<polygon id="Path_00000150791044664126943580000016539110847019633087_" style="fill:#288ADB;" points="207.3,265.9 257.9,236.7 
				253.1,228.1 202.4,257.3 			"/>
			<polygon id="Path_00000125572619616012788330000009737097497836107393_" style="fill:#288ADB;" points="54.3,217.8 54.3,276.2 
				64.1,276.2 64.1,217.8 			"/>
			<polygon id="Path_00000126286109426175889150000014677507821060424358_" style="fill:#288ADB;" points="31.5,236.7 82.1,265.9 
				87,257.3 36.3,228.1 			"/>
			<polygon id="Path_00000137836359659447866410000014353220679656149383_" style="fill:#288ADB;" points="36.3,265.9 87,236.7 
				82.1,228.1 31.5,257.3 			"/>
			<path id="Path_00000168795839254702982790000013672618909140549521_" style="fill:#BABABA;" d="M195.9,70.9
				c-19.3-21.4-49.4-29.5-76.9-20.5C92.2,59,72.9,82.3,69.1,110h-7.4c-22.9,0-41.5,18.6-41.5,41.5s18.6,41.5,41.5,41.5h141.6
				c33.7,0,61-27.4,61-61s-27.4-61-61-61H195.9z M203.3,183.2H61.7c-17.5,0-31.7-14.2-31.7-31.7s14.2-31.7,31.7-31.7h16.3l0.3-4.5
				c1.9-25.6,19.2-47.6,43.6-55.5s51.4-0.3,67.9,19.3l1.4,1.7h11.9c28.3,0,51.3,23,51.3,51.3S231.6,183.2,203.3,183.2z"/>
			<polygon id="Path_00000162314225175324335110000017353271989595390345_" style="fill:#288ADB;" points="139.8,207.9 139.8,286 
				149.5,286 149.5,207.9 			"/>
			<polygon id="Path_00000022551835444146328520000000802459708389813152_" style="fill:#288ADB;" points="108.4,231.7 176.1,270.7 
				180.9,262.2 113.3,223.2 			"/>
			<polygon id="Path_00000085224613840263772240000008598009979922182062_" style="fill:#288ADB;" points="113.3,270.7 180.9,231.7 
				176.1,223.2 108.4,262.2 			"/>
		</g>
	</g>
</g>
</svg>
