<?xml version="1.0" encoding="utf-8"?>
<!-- Generator: Adobe Illustrator 26.5.3, SVG Export Plug-In . SVG Version: 6.00 Build 0)  -->
<svg version="1.1" id="Layer_1" xmlns="http://www.w3.org/2000/svg" xmlns:xlink="http://www.w3.org/1999/xlink" x="0px" y="0px"
	 width="288px" height="288px" viewBox="0 0 288 288" style="enable-background:new 0 0 288 288;" xml:space="preserve">
<g>
	<rect style="fill:none;" width="288" height="288"/>
	
		<g id="WX-Icons_x2F_Brand_x2F_Color_x2F_17--Partly-Cloudy-with-Thundershowers-_x40_DefaultSymbols.ICONS_x5F_Forecast_x5F_Color">
		<g id="Partly-sunny-w--Thunderstorms" transform="translate(0.000000, 2.000000)">
			<polygon id="Path" style="fill:#FF8700;" points="131.7,42.7 131.7,-1.3 122,-1.3 122,42.7 			"/>
			<polygon id="Path_00000160165196789663439050000001679969361619189415_" style="fill:#FF8700;" points="71.7,63.5 40.6,32.5 
				33.7,39.4 64.8,70.5 			"/>
			<polygon id="Path_00000054245489656437850000000013791667264208827288_" style="fill:#FF8700;" points="43.9,120.8 0,120.8 
				0,130.5 43.9,130.5 			"/>
			<polygon id="Path_00000073689895512665726130000004206960232711800467_" style="fill:#FF8700;" points="64.8,180.8 33.7,211.9 
				40.6,218.8 71.7,187.7 			"/>
			<polygon id="Path_00000176041574120883217060000012722285799523890839_" style="fill:#FF8700;" points="188.8,70.4 219.9,39.4 
				213,32.4 181.9,63.5 			"/>
			<path id="Path_00000105397074632658479840000002956377886892226194_" style="fill:#FF8700;" d="M195.9,101.6
				c-10.9-31.5-41.6-51.7-74.9-49.1c-33.3,2.6-60.5,27.2-66.4,60S65.8,178,96,192l4.1-8.9c-26.2-12.1-40.9-40.4-35.8-68.9
				s28.8-49.8,57.6-52s55.5,15.3,64.9,42.6L195.9,101.6z"/>
			<polygon id="Path_00000049195339435746197150000010221400371476744879_" style="fill:#FF8700;" points="214,184.1 205.5,179.2 
				171.7,237.1 205.2,237.1 180,280.3 188.5,285.3 222.2,227.4 188.7,227.4 			"/>
			<path id="Path_00000054239415115877316280000013906415414858622098_" style="fill:#BABABA;" d="M233.3,117.5
				c-15.4-17.3-39.7-24-61.8-16.7c-21.5,7-36.9,25.6-39.9,47.6H127c-12.4-0.5-24,5.9-30.4,16.5c-6.4,10.7-6.4,24,0,34.7
				c6.3,10.7,18,17,30.4,16.5h48.7v-9.8h-48.8h-0.2c-8.8,0.4-17.2-4.1-21.7-11.8c-4.5-7.6-4.5-17.1,0-24.7
				c4.5-7.6,12.9-12.1,21.7-11.8h0.2h13.8l0.3-4.6c1.2-20.1,14.5-37.3,33.6-43.5c19.1-6.2,40.1-0.1,52.8,15.4l1.5,1.8h9.9
				c21.8,0,39.5,17.7,39.5,39.5s-17.7,39.5-39.5,39.5h-29.3v9.8h29.3c27.2,0,49.3-22.1,49.3-49.3s-22.1-49.3-49.3-49.3h-5.4V117.5z"
				/>
		</g>
	</g>
</g>
</svg>
