<?xml version="1.0" encoding="utf-8"?>
<!-- Generator: Adobe Illustrator 26.5.3, SVG Export Plug-In . SVG Version: 6.00 Build 0)  -->
<svg version="1.1" id="Layer_1" xmlns="http://www.w3.org/2000/svg" xmlns:xlink="http://www.w3.org/1999/xlink" x="0px" y="0px"
	 width="288px" height="288px" viewBox="0 0 288 288" style="enable-background:new 0 0 288 288;" xml:space="preserve">
<g>
	<rect style="fill:none;" width="288" height="288"/>
	
		<g id="WX-Icons_x2F_Brand_x2F_Color_x2F_16--Mostly-Cloudy-with-Thundershowers-_x40_DefaultSymbols.ICONS_x5F_Forecast_x5F_Color">
		<g id="Mostly-cloudy-w-Thunderstorms" transform="translate(14.000000, 5.000000)">
			<polygon id="Path" style="fill:#FF8700;" points="77.8,-5 77.8,29.8 87.7,29.8 87.7,-5 			"/>
			<polygon id="Path_00000017483593096483172230000010576286154968346013_" style="fill:#FF8700;" points="28.1,79.1 -6.7,79.1 
				-6.7,89 28.1,89 			"/>
			<polygon id="Path_00000056403480127838524150000007759245198972393626_" style="fill:#FF8700;" points="47.6,41.9 23,17.3 
				16,24.3 40.5,48.9 			"/>
			<path id="Path_00000179648414729474327890000005434254558946161829_" style="fill:#FF8700;" d="M115,52.9
				C103.6,41.2,86.6,36.6,70.8,41C55,45.5,42.9,58.2,39.3,74.3c-3.6,16,1.9,32.7,14.2,43.5l6.5-7.5c-9.6-8.4-13.9-21.4-11.1-33.8
				C51.8,64,61.2,54.1,73.5,50.6c12.3-3.5,25.5,0.1,34.4,9.3L115,52.9z"/>
			<polygon id="Path_00000165953956468582432540000007809021784670093990_" style="fill:#FF8700;" points="171.6,152.9 163.1,147.9 
				120.8,220.5 163.9,220.5 130.3,278 138.9,283 181.2,210.5 138.1,210.5 			"/>
			<path id="Path_00000000915154640773442490000007646077332467096960_" style="fill:#BABABA;" d="M197,69.2
				c-19.6-21.7-50.3-30-78.3-20.9C91.5,57.1,71.9,80.8,68,108.9h-7.5c-23.3,0-42.2,18.9-42.2,42.2s18.9,42.2,42.2,42.2H123v-9.9
				H60.5c-17.8,0-32.3-14.5-32.3-32.3s14.5-32.3,32.3-32.3H77l0.3-4.6c2-26.1,19.5-48.4,44.4-56.5S174,57.4,191,77.4l1.5,1.8h12.1
				c28.8,0,52.2,23.4,52.2,52.2s-23.4,52.2-52.2,52.2h-37.7v9.9h37.7c34.3,0,62.1-27.8,62.1-62.1s-27.8-62.1-62.1-62.1H197z"/>
		</g>
	</g>
</g>
</svg>
