<?xml version="1.0" encoding="utf-8"?>
<!-- Generator: Adobe Illustrator 26.5.3, SVG Export Plug-In . SVG Version: 6.00 Build 0)  -->
<svg version="1.1" id="Layer_1" xmlns="http://www.w3.org/2000/svg" xmlns:xlink="http://www.w3.org/1999/xlink" x="0px" y="0px"
	 width="288px" height="288px" viewBox="0 0 288 288" style="enable-background:new 0 0 288 288;" xml:space="preserve">
<g>
	<rect style="fill:none;" width="288" height="288"/>
	<g id="WX-Icons_x2F_Brand_x2F_Color_x2F_15--Thunderstorms-_x40_DefaultSymbols.ICONS_x5F_Forecast_x5F_Color">
		<g id="Thunderstorms" transform="translate(26.000000, 30.000000)">
			<polygon id="Path" style="fill:#FF8700;" points="151.9,101.4 141.9,95.6 92.9,179.7 142.8,179.7 103.9,246.4 113.8,252.2 
				162.9,168.2 112.9,168.2 			"/>
			<path id="Path_00000174560685748257915340000000327292155481660346_" style="fill:#BABABA;" d="M181.3,4.3
				C158.5-20.9,123-30.5,90.5-19.9C58.9-9.7,36.2,17.7,31.7,50.3H23c-27,0-49,21.9-49,49s21.9,49,49,49h72.6v-11.5H23
				c-20.7,0-37.4-16.8-37.4-37.4S2.3,61.9,23,61.9h19.2l0.4-5.3C44.9,26.3,65.2,0.4,94.1-9s60.5-0.4,80.2,22.7l1.7,2h14
				c33.4,0,60.5,27.1,60.5,60.5s-27.1,60.5-60.5,60.5h-43.7v11.5H190c39.8,0,72-32.2,72-72s-32.2-72-72-72H181.3z"/>
		</g>
	</g>
</g>
</svg>
