<?xml version="1.0" encoding="utf-8"?>
<!-- Generator: Adobe Illustrator 26.5.3, SVG Export Plug-In . SVG Version: 6.00 Build 0)  -->
<svg version="1.1" id="Layer_1" xmlns="http://www.w3.org/2000/svg" xmlns:xlink="http://www.w3.org/1999/xlink" x="0px" y="0px"
	 width="288px" height="288px" viewBox="0 0 288 288" style="enable-background:new 0 0 288 288;" xml:space="preserve">
<g>
	<rect style="fill:none;" width="288" height="288"/>
	<g id="WX-Icons_x2F_Brand_x2F_Color_x2F_25--Sleet-_x40_DefaultSymbols.ICONS_x5F_Forecast_x5F_Color">
		<g id="Sleet-Hail" transform="translate(26.000000, 28.000000)">
			<path id="Path" style="fill:#BABABA;" d="M90.5-20.9C58.9-10.7,36.1,16.7,31.6,49.3h-8.7c-27,0-48.9,22-48.9,49
				s21.9,48.9,48.9,48.9H190c39.7,0,72-32.2,72-72s-32.2-72-72-72h-8.7C158.5-22,123-31.5,90.5-20.9z M190,135.7H22.9
				c-20.7,0-37.4-16.8-37.4-37.4S2.3,60.9,22.9,60.9h19.2l0.4-5.3C44.8,25.4,65.1-0.5,94-9.9s60.6-0.4,80.2,22.7l1.8,2h14
				c33.4,0,60.4,27,60.4,60.4S223.4,135.7,190,135.7z"/>
			<path id="Oval" style="fill:#288ADB;" d="M178.4,216.5c14.3,0,25.9-11.6,25.9-25.9c0-14.2-11.6-25.9-25.9-25.9
				c-14.3,0-25.9,11.6-25.9,25.9C152.5,204.9,164,216.5,178.4,216.5z M178.4,205c-8,0-14.3-6.5-14.3-14.3c0-8,6.5-14.3,14.3-14.3
				c8,0,14.3,6.5,14.3,14.3C192.7,198.5,186.3,205,178.4,205z"/>
			<path id="Oval_00000137111748741443497800000016744044917105111742_" style="fill:#288ADB;" d="M51.5,257.2
				c14.3,0,25.9-11.6,25.9-25.9c0-14.2-11.6-25.9-25.9-25.9s-25.9,11.6-25.9,25.9C25.6,245.5,37.3,257.2,51.5,257.2z M51.5,245.7
				c-8,0-14.3-6.5-14.3-14.3c0-7.9,6.5-14.3,14.3-14.3s14.3,6.5,14.3,14.3C65.8,239.2,59.5,245.7,51.5,245.7z"/>
			<path id="Oval_00000059307697926370460850000014087650711067488654_" style="fill:#288ADB;" d="M115,236.8
				c14.3,0,25.9-11.6,25.9-25.9c0-14.2-11.6-25.9-25.9-25.9S89.1,196.7,89.1,211C89.1,225.2,100.7,236.8,115,236.8z M115,225.3
				c-8,0-14.3-6.5-14.3-14.3c0-7.9,6.5-14.3,14.3-14.3s14.3,6.5,14.3,14.3C129.3,218.9,122.9,225.3,115,225.3z"/>
		</g>
	</g>
</g>
</svg>
