<?xml version="1.0" encoding="utf-8"?>
<!-- Generator: Adobe Illustrator 26.5.3, SVG Export Plug-In . SVG Version: 6.00 Build 0)  -->
<svg version="1.1" id="Layer_1" xmlns="http://www.w3.org/2000/svg" xmlns:xlink="http://www.w3.org/1999/xlink" x="0px" y="0px"
	 width="288px" height="288px" viewBox="0 0 288 288" style="enable-background:new 0 0 288 288;" xml:space="preserve">
<g>
	<rect style="fill:none;" width="288" height="288"/>
	<g id="Freezing-Rain-_x28_Icy-Mix_x29_" transform="translate(26.000000, 31.000000)">
		<path id="Path" style="fill:#288ADB;" d="M162.6,164.6h-10.1l-27.8,42.7l27.8,44h10.1l27.8-44L162.6,164.6z M159.5,172.9l-1.9-1.3
			l-1.9,1.3v2.2l0.7,1.1h2.5l0.7-1.1v-2.2H159.5z M176.7,207.4l-19.2,30.3l-19.2-30.3l19.2-29.4L176.7,207.4z M155.7,240.8v2.4
			l1.9,1.2l1.9-1.2v-2.4l-0.6-0.9h-2.6L155.7,240.8z"/>
		<path id="Path_00000163050759034336106500000003298800118562204605_" style="fill:#BABABA;" d="M90.5-21
			C58.9-10.8,36.1,16.6,31.6,49.2h-8.7c-27,0-48.9,22-48.9,49s21.9,48.9,48.9,48.9H190c39.7,0,72-32.2,72-72s-32.2-72-72-72h-8.7
			C158.5-22.1,123-31.6,90.5-21z M190,135.6H22.9c-20.7,0-37.4-16.8-37.4-37.4S2.3,60.8,22.9,60.8h19.2l0.4-5.3
			C44.8,25.3,65.1-0.6,94-10s60.6-0.4,80.2,22.7l1.8,2h14c33.4,0,60.4,27,60.4,60.4S223.4,135.6,190,135.6z"/>
		<polygon id="Path_00000079482116711722281980000012434867485146787989_" style="fill:#288ADB;" points="68.9,161.7 48.6,197 
			58.6,202.7 78.9,167.5 		"/>
		<path id="Oval" style="fill:#288ADB;" d="M43.5,222.5c4.4,0,7.9-3.5,7.9-7.9c0-4.4-3.5-7.9-7.9-7.9s-7.9,3.5-7.9,7.9
			C35.6,219,39.1,222.5,43.5,222.5z M43.5,211c2,0,3.6,1.6,3.6,3.6c0,2-1.6,3.6-3.6,3.6c-2,0-3.6-1.6-3.6-3.6
			C39.9,212.6,41.4,211,43.5,211z"/>
		<polygon id="Path_00000117657046015604203410000018009036291454578071_" style="fill:#288ADB;" points="111.2,161.7 76.3,222.3 
			86.3,228 121.2,167.5 		"/>
		<path id="Oval_00000090281237765678965790000013656598916094302342_" style="fill:#288ADB;" d="M69.1,251.3c4.4,0,7.9-3.5,7.9-7.9
			c0-4.4-3.5-7.9-7.9-7.9s-7.9,3.5-7.9,7.9C61.3,247.8,64.8,251.3,69.1,251.3z M69.1,239.9c2,0,3.6,1.6,3.6,3.6c0,2-1.6,3.6-3.6,3.6
			c-2,0-3.6-1.6-3.6-3.6C65.5,241.5,67.1,239.9,69.1,239.9z"/>
	</g>
</g>
</svg>
